<mxfile host="embed.diagrams.net" modified="2020-07-24T15:10:59.919Z" agent="5.0 (Windows NT 10.0; Win64; x64) AppleWebKit/537.36 (KHTML, like Gecko) Code/1.47.2 Chrome/78.0.3904.130 Electron/7.3.2 Safari/537.36" etag="kc2RDifYR6x9OG3VqIxq" version="13.5.1">
    <diagram id="6hGFLwfOUW9BJ-s0fimq" name="Page-1">
        <mxGraphModel dx="708" dy="667" grid="1" gridSize="10" guides="1" tooltips="1" connect="1" arrows="1" fold="1" page="1" pageScale="1" pageWidth="827" pageHeight="1169" math="0" shadow="0">
            <root>
                <mxCell id="0"/>
                <mxCell id="1" parent="0"/>
                <mxCell id="85" value="" style="rounded=1;arcSize=10;dashed=1;fillColor=none;gradientColor=none;dashPattern=8 3 1 3;strokeWidth=2;fontSize=14;" parent="1" vertex="1">
                    <mxGeometry x="920" y="390.95" width="102.4" height="110" as="geometry"/>
                </mxCell>
                <mxCell id="84" value="" style="rounded=1;arcSize=10;dashed=1;fillColor=none;gradientColor=none;dashPattern=8 3 1 3;strokeWidth=2;fontSize=14;" parent="1" vertex="1">
                    <mxGeometry x="700" y="390" width="100" height="110" as="geometry"/>
                </mxCell>
                <mxCell id="40" value="" style="rounded=1;arcSize=10;dashed=1;fillColor=none;gradientColor=none;dashPattern=8 3 1 3;strokeWidth=2;fontSize=14;" parent="1" vertex="1">
                    <mxGeometry x="1105.9" y="60" width="234.1" height="117.3" as="geometry"/>
                </mxCell>
                <mxCell id="55" value="" style="shape=image;html=1;verticalAlign=top;verticalLabelPosition=bottom;labelBackgroundColor=#ffffff;imageAspect=0;aspect=fixed;image=https://cdn0.iconfinder.com/data/icons/zondicons/20/php-elephant-128.png" parent="1" vertex="1">
                    <mxGeometry x="1140" y="97" width="64" height="64" as="geometry"/>
                </mxCell>
                <mxCell id="12" value="" style="rounded=1;arcSize=10;dashed=1;fillColor=none;gradientColor=none;dashPattern=8 3 1 3;strokeWidth=2;fontSize=14;" parent="1" vertex="1">
                    <mxGeometry x="228.5" y="50" width="171.5" height="120" as="geometry"/>
                </mxCell>
                <mxCell id="2" value="" style="aspect=fixed;perimeter=ellipsePerimeter;html=1;align=center;shadow=0;dashed=0;spacingTop=3;image;image=img/lib/active_directory/web_server.svg;" parent="1" vertex="1">
                    <mxGeometry x="208" y="40" width="64" height="80" as="geometry"/>
                </mxCell>
                <mxCell id="4" value="" style="dashed=0;outlineConnect=0;html=1;align=center;labelPosition=center;verticalLabelPosition=bottom;verticalAlign=top;shape=mxgraph.weblogos.chrome" parent="1" vertex="1">
                    <mxGeometry x="202.6" y="240" width="74.8" height="75.4" as="geometry"/>
                </mxCell>
                <mxCell id="5" value="Webサーバ" style="text;html=1;strokeColor=none;fillColor=none;align=center;verticalAlign=middle;whiteSpace=wrap;rounded=0;fontSize=14;fontColor=#FF3333;fontStyle=1" parent="1" vertex="1">
                    <mxGeometry x="192" y="20" width="80" height="20" as="geometry"/>
                </mxCell>
                <mxCell id="6" value="クライアント" style="text;html=1;strokeColor=none;fillColor=none;align=center;verticalAlign=middle;whiteSpace=wrap;rounded=0;fontSize=14;fontColor=#3333FF;fontStyle=1" parent="1" vertex="1">
                    <mxGeometry x="190" y="320" width="100" height="20" as="geometry"/>
                </mxCell>
                <mxCell id="9" value="" style="verticalLabelPosition=bottom;html=1;verticalAlign=top;strokeWidth=1;align=center;outlineConnect=0;dashed=0;outlineConnect=0;shape=mxgraph.aws3d.file;aspect=fixed;strokeColor=#292929;fontSize=14;" parent="1" vertex="1">
                    <mxGeometry x="299" y="86.7" width="30.8" height="70.6" as="geometry"/>
                </mxCell>
                <mxCell id="10" value="" style="verticalLabelPosition=bottom;html=1;verticalAlign=top;strokeWidth=1;align=center;outlineConnect=0;dashed=0;outlineConnect=0;shape=mxgraph.aws3d.file;aspect=fixed;strokeColor=#292929;fontSize=14;" parent="1" vertex="1">
                    <mxGeometry x="322" y="86.7" width="30.8" height="70.6" as="geometry"/>
                </mxCell>
                <mxCell id="11" value="" style="verticalLabelPosition=bottom;html=1;verticalAlign=top;strokeWidth=1;align=center;outlineConnect=0;dashed=0;outlineConnect=0;shape=mxgraph.aws3d.file;aspect=fixed;strokeColor=#292929;fontSize=14;" parent="1" vertex="1">
                    <mxGeometry x="342" y="86.7" width="30.8" height="70.6" as="geometry"/>
                </mxCell>
                <mxCell id="13" value="html, css, js 等" style="text;html=1;strokeColor=none;fillColor=none;align=center;verticalAlign=middle;whiteSpace=wrap;rounded=0;fontSize=14;" parent="1" vertex="1">
                    <mxGeometry x="272" y="62.7" width="110" height="20" as="geometry"/>
                </mxCell>
                <mxCell id="14" value="" style="endArrow=classic;html=1;fontSize=14;entryX=0.1;entryY=1.023;entryDx=0;entryDy=0;entryPerimeter=0;exitX=0.147;exitY=0.13;exitDx=0;exitDy=0;exitPerimeter=0;fillColor=#dae8fc;strokeColor=#3333FF;" parent="1" source="4" target="2" edge="1">
                    <mxGeometry width="50" height="50" relative="1" as="geometry">
                        <mxPoint x="182.6" y="230" as="sourcePoint"/>
                        <mxPoint x="232.6" y="180" as="targetPoint"/>
                    </mxGeometry>
                </mxCell>
                <mxCell id="15" value="HTTPリクエスト（GET, POST 等）を送信" style="text;html=1;strokeColor=none;fillColor=none;align=center;verticalAlign=middle;whiteSpace=wrap;rounded=0;fontSize=14;fontColor=#3333FF;" parent="1" vertex="1">
                    <mxGeometry x="42.6" y="170" width="160" height="50" as="geometry"/>
                </mxCell>
                <mxCell id="16" value="" style="endArrow=classic;html=1;strokeColor=#FF3333;fontSize=14;fontColor=#FF3333;entryX=1;entryY=1;entryDx=0;entryDy=0;" parent="1" source="9" target="2" edge="1">
                    <mxGeometry width="50" height="50" relative="1" as="geometry">
                        <mxPoint x="140" y="190" as="sourcePoint"/>
                        <mxPoint x="190" y="140" as="targetPoint"/>
                    </mxGeometry>
                </mxCell>
                <mxCell id="19" value="" style="endArrow=classic;html=1;strokeColor=#FF3333;fontSize=14;fontColor=#FF3333;exitX=0.5;exitY=1;exitDx=0;exitDy=0;" parent="1" source="2" target="4" edge="1">
                    <mxGeometry width="50" height="50" relative="1" as="geometry">
                        <mxPoint x="350" y="250" as="sourcePoint"/>
                        <mxPoint x="400" y="200" as="targetPoint"/>
                    </mxGeometry>
                </mxCell>
                <mxCell id="20" value="&lt;font color=&quot;#ff3333&quot;&gt;HTTPレスポンス（html 等）を送信&lt;/font&gt;" style="text;html=1;strokeColor=none;fillColor=none;align=center;verticalAlign=middle;whiteSpace=wrap;rounded=0;fontSize=14;fontColor=#3333FF;" parent="1" vertex="1">
                    <mxGeometry x="247" y="170" width="160" height="50" as="geometry"/>
                </mxCell>
                <mxCell id="21" value="" style="rounded=1;arcSize=10;dashed=1;fillColor=none;gradientColor=none;dashPattern=8 3 1 3;strokeWidth=2;fontSize=14;" parent="1" vertex="1">
                    <mxGeometry x="625.9" y="40" width="284.1" height="130" as="geometry"/>
                </mxCell>
                <mxCell id="22" value="" style="aspect=fixed;perimeter=ellipsePerimeter;html=1;align=center;shadow=0;dashed=0;spacingTop=3;image;image=img/lib/active_directory/web_server.svg;" parent="1" vertex="1">
                    <mxGeometry x="605.4" y="32.7" width="64" height="80" as="geometry"/>
                </mxCell>
                <mxCell id="23" value="" style="dashed=0;outlineConnect=0;html=1;align=center;labelPosition=center;verticalLabelPosition=bottom;verticalAlign=top;shape=mxgraph.weblogos.chrome" parent="1" vertex="1">
                    <mxGeometry x="600" y="240" width="74.8" height="75.4" as="geometry"/>
                </mxCell>
                <mxCell id="24" value="Webサーバ" style="text;html=1;strokeColor=none;fillColor=none;align=center;verticalAlign=middle;whiteSpace=wrap;rounded=0;fontSize=14;fontColor=#FF3333;fontStyle=1" parent="1" vertex="1">
                    <mxGeometry x="589.4" y="12.7" width="80" height="20" as="geometry"/>
                </mxCell>
                <mxCell id="25" value="クライアント" style="text;html=1;strokeColor=none;fillColor=none;align=center;verticalAlign=middle;whiteSpace=wrap;rounded=0;fontSize=14;fontColor=#3333FF;fontStyle=1" parent="1" vertex="1">
                    <mxGeometry x="587.4" y="320" width="100" height="20" as="geometry"/>
                </mxCell>
                <mxCell id="30" value="" style="endArrow=classic;html=1;fontSize=14;entryX=0.1;entryY=1.023;entryDx=0;entryDy=0;entryPerimeter=0;exitX=0.147;exitY=0.13;exitDx=0;exitDy=0;exitPerimeter=0;fillColor=#dae8fc;strokeColor=#3333FF;" parent="1" source="23" target="22" edge="1">
                    <mxGeometry width="50" height="50" relative="1" as="geometry">
                        <mxPoint x="580" y="230" as="sourcePoint"/>
                        <mxPoint x="630" y="180" as="targetPoint"/>
                    </mxGeometry>
                </mxCell>
                <mxCell id="31" value="HTTPリクエスト（GET, POST 等）を送信" style="text;html=1;strokeColor=none;fillColor=none;align=center;verticalAlign=middle;whiteSpace=wrap;rounded=0;fontSize=14;fontColor=#3333FF;" parent="1" vertex="1">
                    <mxGeometry x="440" y="170" width="160" height="50" as="geometry"/>
                </mxCell>
                <mxCell id="32" value="" style="endArrow=classic;html=1;strokeColor=#FF3333;fontSize=14;fontColor=#FF3333;entryX=1;entryY=1;entryDx=0;entryDy=0;" parent="1" target="22" edge="1">
                    <mxGeometry width="50" height="50" relative="1" as="geometry">
                        <mxPoint x="828" y="130" as="sourcePoint"/>
                        <mxPoint x="587.4" y="140" as="targetPoint"/>
                    </mxGeometry>
                </mxCell>
                <mxCell id="33" value="" style="endArrow=classic;html=1;strokeColor=#FF3333;fontSize=14;fontColor=#FF3333;exitX=0.5;exitY=1;exitDx=0;exitDy=0;" parent="1" source="22" target="23" edge="1">
                    <mxGeometry width="50" height="50" relative="1" as="geometry">
                        <mxPoint x="747.4" y="250" as="sourcePoint"/>
                        <mxPoint x="797.4" y="200" as="targetPoint"/>
                    </mxGeometry>
                </mxCell>
                <mxCell id="34" value="&lt;font color=&quot;#ff3333&quot;&gt;HTTPレスポンス（html 等）を送信&lt;/font&gt;" style="text;html=1;strokeColor=none;fillColor=none;align=center;verticalAlign=middle;whiteSpace=wrap;rounded=0;fontSize=14;fontColor=#3333FF;" parent="1" vertex="1">
                    <mxGeometry x="644.4" y="170" width="225.6" height="50" as="geometry"/>
                </mxCell>
                <mxCell id="36" value="&lt;font color=&quot;#ff3333&quot;&gt;アプリケーションが&lt;br&gt;実行結果（html等）を返す&lt;/font&gt;" style="text;html=1;strokeColor=none;fillColor=none;align=center;verticalAlign=middle;whiteSpace=wrap;rounded=0;fontSize=14;fontColor=#3333FF;" parent="1" vertex="1">
                    <mxGeometry x="647" y="120" width="180" height="50" as="geometry"/>
                </mxCell>
                <mxCell id="38" value="" style="endArrow=classic;html=1;strokeColor=#3333FF;exitX=1.072;exitY=0.623;exitDx=0;exitDy=0;exitPerimeter=0;entryX=0;entryY=0.25;entryDx=0;entryDy=0;" parent="1" source="22" target="58" edge="1">
                    <mxGeometry width="50" height="50" relative="1" as="geometry">
                        <mxPoint x="820" y="310" as="sourcePoint"/>
                        <mxPoint x="830" y="110" as="targetPoint"/>
                    </mxGeometry>
                </mxCell>
                <mxCell id="39" value="リクエストに応じて&lt;br&gt;アプリケーション起動" style="text;html=1;strokeColor=none;fillColor=none;align=center;verticalAlign=middle;whiteSpace=wrap;rounded=0;fontSize=14;fontColor=#3333FF;" parent="1" vertex="1">
                    <mxGeometry x="687.95" y="39.999999999999986" width="160" height="50" as="geometry"/>
                </mxCell>
                <mxCell id="56" style="edgeStyle=orthogonalEdgeStyle;rounded=0;orthogonalLoop=1;jettySize=auto;html=1;entryX=1;entryY=0.5;entryDx=0;entryDy=0;strokeColor=#9933FF;" parent="1" source="41" target="55" edge="1">
                    <mxGeometry relative="1" as="geometry">
                        <Array as="points">
                            <mxPoint x="1224" y="77"/>
                            <mxPoint x="1224" y="129"/>
                        </Array>
                    </mxGeometry>
                </mxCell>
                <mxCell id="41" value="" style="aspect=fixed;perimeter=ellipsePerimeter;html=1;align=center;shadow=0;dashed=0;spacingTop=3;image;image=img/lib/active_directory/web_server.svg;" parent="1" vertex="1">
                    <mxGeometry x="1076.8" y="40" width="78" height="97.5" as="geometry"/>
                </mxCell>
                <mxCell id="42" value="" style="dashed=0;outlineConnect=0;html=1;align=center;labelPosition=center;verticalLabelPosition=bottom;verticalAlign=top;shape=mxgraph.weblogos.chrome" parent="1" vertex="1">
                    <mxGeometry x="1080" y="247.3" width="74.8" height="75.4" as="geometry"/>
                </mxCell>
                <mxCell id="43" value="Apacheサーバ" style="text;html=1;strokeColor=none;fillColor=none;align=center;verticalAlign=middle;whiteSpace=wrap;rounded=0;fontSize=14;fontColor=#FF3333;fontStyle=1" parent="1" vertex="1">
                    <mxGeometry x="1050" y="20" width="109.4" height="20" as="geometry"/>
                </mxCell>
                <mxCell id="44" value="クライアント" style="text;html=1;strokeColor=none;fillColor=none;align=center;verticalAlign=middle;whiteSpace=wrap;rounded=0;fontSize=14;fontColor=#3333FF;fontStyle=1" parent="1" vertex="1">
                    <mxGeometry x="1067.4" y="327.3" width="100" height="20" as="geometry"/>
                </mxCell>
                <mxCell id="45" value="" style="endArrow=classic;html=1;fontSize=14;exitX=0.147;exitY=0.13;exitDx=0;exitDy=0;exitPerimeter=0;fillColor=#dae8fc;strokeColor=#3333FF;" parent="1" source="42" edge="1">
                    <mxGeometry width="50" height="50" relative="1" as="geometry">
                        <mxPoint x="1060" y="237.3" as="sourcePoint"/>
                        <mxPoint x="1091" y="130" as="targetPoint"/>
                    </mxGeometry>
                </mxCell>
                <mxCell id="46" value="HTTPリクエスト（GET, POST 等）を送信" style="text;html=1;strokeColor=none;fillColor=none;align=center;verticalAlign=middle;whiteSpace=wrap;rounded=0;fontSize=14;fontColor=#3333FF;" parent="1" vertex="1">
                    <mxGeometry x="920" y="177.3" width="160" height="50" as="geometry"/>
                </mxCell>
                <mxCell id="48" value="" style="endArrow=classic;html=1;strokeColor=#FF3333;fontSize=14;fontColor=#FF3333;exitX=0.5;exitY=1;exitDx=0;exitDy=0;" parent="1" source="41" target="42" edge="1">
                    <mxGeometry width="50" height="50" relative="1" as="geometry">
                        <mxPoint x="1227.4" y="257.3" as="sourcePoint"/>
                        <mxPoint x="1277.4" y="207.3" as="targetPoint"/>
                    </mxGeometry>
                </mxCell>
                <mxCell id="49" value="&lt;font color=&quot;#ff3333&quot;&gt;HTTPレスポンス（html 等）を送信&lt;/font&gt;" style="text;html=1;strokeColor=none;fillColor=none;align=center;verticalAlign=middle;whiteSpace=wrap;rounded=0;fontSize=14;fontColor=#3333FF;" parent="1" vertex="1">
                    <mxGeometry x="1124.4" y="177.3" width="225.6" height="50" as="geometry"/>
                </mxCell>
                <mxCell id="57" value="&lt;font&gt;PHP拡張機能を用いて複雑な処理を実行&lt;/font&gt;" style="text;html=1;strokeColor=none;fillColor=none;align=center;verticalAlign=middle;whiteSpace=wrap;rounded=0;fontSize=14;fontColor=#9933FF;" parent="1" vertex="1">
                    <mxGeometry x="1230" y="70" width="100" height="80" as="geometry"/>
                </mxCell>
                <mxCell id="58" value="" style="shape=image;html=1;verticalAlign=top;verticalLabelPosition=bottom;labelBackgroundColor=#ffffff;imageAspect=0;aspect=fixed;image=https://cdn4.iconfinder.com/data/icons/REALVISTA/development/png/128/cgi_bin.png;fontColor=#9933FF;" parent="1" vertex="1">
                    <mxGeometry x="827" y="82" width="80" height="80" as="geometry"/>
                </mxCell>
                <mxCell id="59" value="" style="rounded=1;arcSize=10;dashed=1;fillColor=none;gradientColor=none;dashPattern=8 3 1 3;strokeWidth=2;fontSize=14;" parent="1" vertex="1">
                    <mxGeometry x="228.49999999999997" y="387.3" width="284.1" height="130" as="geometry"/>
                </mxCell>
                <mxCell id="60" value="" style="aspect=fixed;perimeter=ellipsePerimeter;html=1;align=center;shadow=0;dashed=0;spacingTop=3;image;image=img/lib/active_directory/web_server.svg;" parent="1" vertex="1">
                    <mxGeometry x="208" y="380" width="64" height="80" as="geometry"/>
                </mxCell>
                <mxCell id="61" value="" style="dashed=0;outlineConnect=0;html=1;align=center;labelPosition=center;verticalLabelPosition=bottom;verticalAlign=top;shape=mxgraph.weblogos.chrome" parent="1" vertex="1">
                    <mxGeometry x="202.6" y="587.3" width="74.8" height="75.4" as="geometry"/>
                </mxCell>
                <mxCell id="62" value="Webサーバ" style="text;html=1;strokeColor=none;fillColor=none;align=center;verticalAlign=middle;whiteSpace=wrap;rounded=0;fontSize=14;fontColor=#FF3333;fontStyle=1" parent="1" vertex="1">
                    <mxGeometry x="191.99999999999997" y="360" width="80" height="20" as="geometry"/>
                </mxCell>
                <mxCell id="63" value="クライアント" style="text;html=1;strokeColor=none;fillColor=none;align=center;verticalAlign=middle;whiteSpace=wrap;rounded=0;fontSize=14;fontColor=#3333FF;fontStyle=1" parent="1" vertex="1">
                    <mxGeometry x="189.99999999999997" y="667.3" width="100" height="20" as="geometry"/>
                </mxCell>
                <mxCell id="64" value="" style="endArrow=classic;html=1;fontSize=14;entryX=0.1;entryY=1.023;entryDx=0;entryDy=0;entryPerimeter=0;exitX=0.147;exitY=0.13;exitDx=0;exitDy=0;exitPerimeter=0;fillColor=#dae8fc;strokeColor=#3333FF;" parent="1" source="61" target="60" edge="1">
                    <mxGeometry width="50" height="50" relative="1" as="geometry">
                        <mxPoint x="182.6" y="577.3" as="sourcePoint"/>
                        <mxPoint x="232.6" y="527.3" as="targetPoint"/>
                    </mxGeometry>
                </mxCell>
                <mxCell id="65" value="HTTPリクエスト（GET, POST 等）を送信" style="text;html=1;strokeColor=none;fillColor=none;align=center;verticalAlign=middle;whiteSpace=wrap;rounded=0;fontSize=14;fontColor=#3333FF;" parent="1" vertex="1">
                    <mxGeometry x="42.6" y="517.3" width="160" height="50" as="geometry"/>
                </mxCell>
                <mxCell id="66" value="" style="endArrow=classic;html=1;strokeColor=#9933FF;fontSize=14;fontColor=#FF3333;entryX=1;entryY=1;entryDx=0;entryDy=0;exitX=-0.047;exitY=0.67;exitDx=0;exitDy=0;exitPerimeter=0;" parent="1" source="73" target="60" edge="1">
                    <mxGeometry width="50" height="50" relative="1" as="geometry">
                        <mxPoint x="430.6" y="477.3" as="sourcePoint"/>
                        <mxPoint x="189.99999999999997" y="487.3" as="targetPoint"/>
                    </mxGeometry>
                </mxCell>
                <mxCell id="67" value="" style="endArrow=classic;html=1;strokeColor=#FF3333;fontSize=14;fontColor=#FF3333;exitX=0.5;exitY=1;exitDx=0;exitDy=0;" parent="1" source="60" target="61" edge="1">
                    <mxGeometry width="50" height="50" relative="1" as="geometry">
                        <mxPoint x="350" y="597.3" as="sourcePoint"/>
                        <mxPoint x="400" y="547.3" as="targetPoint"/>
                    </mxGeometry>
                </mxCell>
                <mxCell id="68" value="&lt;font color=&quot;#ff3333&quot;&gt;HTTPレスポンス&lt;br&gt;（html 等）を送信&lt;/font&gt;" style="text;html=1;strokeColor=none;fillColor=none;align=center;verticalAlign=middle;whiteSpace=wrap;rounded=0;fontSize=14;fontColor=#3333FF;" parent="1" vertex="1">
                    <mxGeometry x="244.6" y="517.3" width="125.4" height="50" as="geometry"/>
                </mxCell>
                <mxCell id="69" value="&lt;font&gt;APサーバが&lt;br&gt;実行結果（html等）を返す&lt;/font&gt;" style="text;html=1;strokeColor=none;fillColor=none;align=center;verticalAlign=middle;whiteSpace=wrap;rounded=0;fontSize=14;fontColor=#9933FF;" parent="1" vertex="1">
                    <mxGeometry x="249.6" y="467.3" width="180" height="50" as="geometry"/>
                </mxCell>
                <mxCell id="70" value="" style="endArrow=classic;html=1;strokeColor=#3333FF;exitX=1.072;exitY=0.623;exitDx=0;exitDy=0;exitPerimeter=0;entryX=-0.047;entryY=0.27;entryDx=0;entryDy=0;entryPerimeter=0;" parent="1" source="60" target="73" edge="1">
                    <mxGeometry width="50" height="50" relative="1" as="geometry">
                        <mxPoint x="422.6" y="657.3" as="sourcePoint"/>
                        <mxPoint x="429.5999999999999" y="449.29999999999995" as="targetPoint"/>
                    </mxGeometry>
                </mxCell>
                <mxCell id="71" value="リクエストに応じて&lt;br&gt;APサーバに処理要求" style="text;html=1;strokeColor=none;fillColor=none;align=center;verticalAlign=middle;whiteSpace=wrap;rounded=0;fontSize=14;fontColor=#3333FF;" parent="1" vertex="1">
                    <mxGeometry x="290.55000000000007" y="387.3" width="160" height="50" as="geometry"/>
                </mxCell>
                <mxCell id="73" value="" style="aspect=fixed;html=1;points=[];align=center;image;fontSize=12;image=img/lib/mscae/WebHosting.svg;" parent="1" vertex="1">
                    <mxGeometry x="440" y="440" width="60" height="60" as="geometry"/>
                </mxCell>
                <mxCell id="74" value="&lt;b&gt;【APサーバ】&lt;/b&gt;&lt;br style=&quot;font-size: 14px&quot;&gt;アプリケーションが&lt;br&gt;常時稼働&lt;br&gt;しているサーバ" style="shape=callout;whiteSpace=wrap;html=1;perimeter=calloutPerimeter;fontColor=#9933FF;direction=west;fontSize=14;position2=0.78;" parent="1" vertex="1">
                    <mxGeometry x="447.75" y="488.25" width="144.5" height="133.5" as="geometry"/>
                </mxCell>
                <mxCell id="78" value="" style="aspect=fixed;perimeter=ellipsePerimeter;html=1;align=center;shadow=0;dashed=0;spacingTop=3;image;image=img/lib/active_directory/web_server.svg;" parent="1" vertex="1">
                    <mxGeometry x="718" y="400.95" width="64" height="80" as="geometry"/>
                </mxCell>
                <mxCell id="79" value="" style="dashed=0;outlineConnect=0;html=1;align=center;labelPosition=center;verticalLabelPosition=bottom;verticalAlign=top;shape=mxgraph.weblogos.chrome" parent="1" vertex="1">
                    <mxGeometry x="712.6" y="608.25" width="74.8" height="75.4" as="geometry"/>
                </mxCell>
                <mxCell id="80" value="" style="aspect=fixed;html=1;points=[];align=center;image;fontSize=12;image=img/lib/mscae/WebHosting.svg;" parent="1" vertex="1">
                    <mxGeometry x="939.5999999999999" y="409.2" width="65.4" height="65.4" as="geometry"/>
                </mxCell>
                <mxCell id="81" value="Webサーバ" style="text;html=1;strokeColor=none;fillColor=#ffffff;align=center;verticalAlign=middle;whiteSpace=wrap;rounded=0;fontSize=14;fontColor=#FF3333;fontStyle=1" parent="1" vertex="1">
                    <mxGeometry x="707.4" y="380" width="80" height="20" as="geometry"/>
                </mxCell>
                <mxCell id="82" value="&lt;font color=&quot;#9933ff&quot;&gt;APサーバ&lt;/font&gt;" style="text;html=1;strokeColor=none;fillColor=#ffffff;align=center;verticalAlign=middle;whiteSpace=wrap;rounded=0;fontSize=14;fontColor=#FF3333;fontStyle=1" parent="1" vertex="1">
                    <mxGeometry x="931.2" y="380.95" width="80" height="20" as="geometry"/>
                </mxCell>
                <mxCell id="83" value="クライアント" style="text;html=1;strokeColor=none;fillColor=none;align=center;verticalAlign=middle;whiteSpace=wrap;rounded=0;fontSize=14;fontColor=#3333FF;fontStyle=1" parent="1" vertex="1">
                    <mxGeometry x="700" y="687.3" width="100" height="20" as="geometry"/>
                </mxCell>
                <mxCell id="87" value="" style="endArrow=classic;html=1;fontSize=14;entryX=0.1;entryY=1.023;entryDx=0;entryDy=0;entryPerimeter=0;fillColor=#dae8fc;strokeColor=#3333FF;exitX=0.254;exitY=-0.002;exitDx=0;exitDy=0;exitPerimeter=0;" parent="1" source="79" edge="1">
                    <mxGeometry width="50" height="50" relative="1" as="geometry">
                        <mxPoint x="731" y="602.7" as="sourcePoint"/>
                        <mxPoint x="730.8" y="480.94999999999993" as="targetPoint"/>
                    </mxGeometry>
                </mxCell>
                <mxCell id="88" value="" style="endArrow=classic;html=1;fontSize=14;exitX=0.147;exitY=0.13;exitDx=0;exitDy=0;exitPerimeter=0;fillColor=#dae8fc;strokeColor=#FF3333;" parent="1" edge="1">
                    <mxGeometry width="50" height="50" relative="1" as="geometry">
                        <mxPoint x="760.8" y="480.95" as="sourcePoint"/>
                        <mxPoint x="760" y="612.7" as="targetPoint"/>
                    </mxGeometry>
                </mxCell>
                <mxCell id="89" value="" style="endArrow=classic;html=1;fontSize=14;entryX=0.195;entryY=0.289;entryDx=0;entryDy=0;entryPerimeter=0;fillColor=#dae8fc;strokeColor=#3333FF;exitX=1;exitY=0.25;exitDx=0;exitDy=0;" parent="1" source="78" target="85" edge="1">
                    <mxGeometry width="50" height="50" relative="1" as="geometry">
                        <mxPoint x="741.5991999999999" y="618.0992000000001" as="sourcePoint"/>
                        <mxPoint x="740.8" y="490.95" as="targetPoint"/>
                    </mxGeometry>
                </mxCell>
                <mxCell id="90" value="" style="endArrow=classic;html=1;fontSize=14;entryX=0.195;entryY=0.289;entryDx=0;entryDy=0;entryPerimeter=0;fillColor=#dae8fc;strokeColor=#9933FF;exitX=1;exitY=0.25;exitDx=0;exitDy=0;" parent="1" edge="1">
                    <mxGeometry width="50" height="50" relative="1" as="geometry">
                        <mxPoint x="939.5980000000002" y="452.69999999999993" as="sourcePoint"/>
                        <mxPoint x="778.2516701119972" y="453.0214561800017" as="targetPoint"/>
                    </mxGeometry>
                </mxCell>
                <mxCell id="91" value="処理要求" style="text;html=1;strokeColor=none;fillColor=none;align=center;verticalAlign=middle;whiteSpace=wrap;rounded=0;fontSize=14;fontColor=#3333FF;" parent="1" vertex="1">
                    <mxGeometry x="830" y="402.7" width="70" height="20" as="geometry"/>
                </mxCell>
                <mxCell id="92" value="処理結果" style="text;html=1;strokeColor=none;fillColor=none;align=center;verticalAlign=middle;whiteSpace=wrap;rounded=0;fontSize=14;fontColor=#9933FF;" parent="1" vertex="1">
                    <mxGeometry x="830" y="460" width="70" height="20" as="geometry"/>
                </mxCell>
                <mxCell id="93" value="リクエスト" style="text;html=1;strokeColor=none;fillColor=none;align=center;verticalAlign=middle;whiteSpace=wrap;rounded=0;fontSize=14;fontColor=#3333FF;" parent="1" vertex="1">
                    <mxGeometry x="640" y="540" width="90" height="20" as="geometry"/>
                </mxCell>
                <mxCell id="94" value="&lt;font color=&quot;#ff3333&quot;&gt;レスポンス&lt;/font&gt;" style="text;html=1;strokeColor=none;fillColor=none;align=center;verticalAlign=middle;whiteSpace=wrap;rounded=0;fontSize=14;fontColor=#3333FF;" parent="1" vertex="1">
                    <mxGeometry x="770" y="540" width="90" height="20" as="geometry"/>
                </mxCell>
                <mxCell id="95" value="HTTP&lt;br&gt;（プロトコル）" style="text;html=1;strokeColor=#6c8ebf;fillColor=#dae8fc;align=center;verticalAlign=middle;whiteSpace=wrap;rounded=0;fontSize=14;" parent="1" vertex="1">
                    <mxGeometry x="1210" y="391" width="110" height="49" as="geometry"/>
                </mxCell>
                <mxCell id="96" value="HTML&lt;br&gt;（フォーマット）" style="text;html=1;strokeColor=#82b366;fillColor=#d5e8d4;align=center;verticalAlign=middle;whiteSpace=wrap;rounded=0;fontSize=14;" parent="1" vertex="1">
                    <mxGeometry x="1320" y="500" width="120" height="49" as="geometry"/>
                </mxCell>
                <mxCell id="100" style="edgeStyle=orthogonalEdgeStyle;rounded=0;orthogonalLoop=1;jettySize=auto;html=1;fontSize=14;startArrow=classic;startFill=1;" parent="1" source="97" target="96" edge="1">
                    <mxGeometry relative="1" as="geometry"/>
                </mxCell>
                <mxCell id="97" value="URI&lt;br&gt;（識別子）" style="text;html=1;strokeColor=#d79b00;fillColor=#ffe6cc;align=center;verticalAlign=middle;whiteSpace=wrap;rounded=0;fontSize=14;" parent="1" vertex="1">
                    <mxGeometry x="1100" y="499.95" width="110" height="49" as="geometry"/>
                </mxCell>
                <mxCell id="98" value="" style="endArrow=classic;startArrow=classic;html=1;fontSize=14;entryX=0.25;entryY=1;entryDx=0;entryDy=0;exitX=0.75;exitY=0;exitDx=0;exitDy=0;" parent="1" source="97" target="95" edge="1">
                    <mxGeometry width="50" height="50" relative="1" as="geometry">
                        <mxPoint x="1170" y="500" as="sourcePoint"/>
                        <mxPoint x="1220" y="450" as="targetPoint"/>
                    </mxGeometry>
                </mxCell>
                <mxCell id="99" value="" style="endArrow=classic;startArrow=classic;html=1;fontSize=14;exitX=0.25;exitY=0;exitDx=0;exitDy=0;entryX=0.75;entryY=1;entryDx=0;entryDy=0;" parent="1" source="96" target="95" edge="1">
                    <mxGeometry width="50" height="50" relative="1" as="geometry">
                        <mxPoint x="1320" y="495" as="sourcePoint"/>
                        <mxPoint x="1370" y="445" as="targetPoint"/>
                    </mxGeometry>
                </mxCell>
                <mxCell id="101" value="Webの要素" style="text;html=1;strokeColor=#666666;fillColor=#f5f5f5;align=center;verticalAlign=middle;whiteSpace=wrap;rounded=0;fontSize=14;fontColor=#333333;" parent="1" vertex="1">
                    <mxGeometry x="1225" y="470" width="80" height="30" as="geometry"/>
                </mxCell>
                <mxCell id="102" value="通信" style="text;html=1;strokeColor=none;fillColor=none;align=center;verticalAlign=middle;whiteSpace=wrap;rounded=0;fontSize=14;" parent="1" vertex="1">
                    <mxGeometry x="1330" y="450" width="50" height="30" as="geometry"/>
                </mxCell>
                <mxCell id="103" value="リンク" style="text;html=1;strokeColor=none;fillColor=none;align=center;verticalAlign=middle;whiteSpace=wrap;rounded=0;fontSize=14;" parent="1" vertex="1">
                    <mxGeometry x="1240" y="532.3" width="50" height="27.7" as="geometry"/>
                </mxCell>
                <mxCell id="104" value="指定" style="text;html=1;strokeColor=none;fillColor=none;align=center;verticalAlign=middle;whiteSpace=wrap;rounded=0;fontSize=14;" parent="1" vertex="1">
                    <mxGeometry x="1154.8" y="450" width="50" height="27.7" as="geometry"/>
                </mxCell>
                <mxCell id="105" value="第7層&lt;br&gt;アプリケーション層" style="rounded=0;whiteSpace=wrap;html=1;fontSize=20;labelBackgroundColor=none;fillColor=#D4E1F5;" vertex="1" parent="1">
                    <mxGeometry x="42.6" y="766" width="200" height="60" as="geometry"/>
                </mxCell>
                <mxCell id="106" value="OSI基本参照モデル" style="text;html=1;resizable=0;points=[];autosize=1;align=center;verticalAlign=top;spacingTop=-4;fontSize=20;" vertex="1" parent="1">
                    <mxGeometry x="47.6" y="730" width="190" height="30" as="geometry"/>
                </mxCell>
                <mxCell id="107" value="第6層&lt;br&gt;&lt;font style=&quot;font-size: 18px&quot;&gt;プレゼンテーション層&lt;/font&gt;" style="rounded=0;whiteSpace=wrap;html=1;fontSize=20;labelBackgroundColor=none;fillColor=#D4E1F5;" vertex="1" parent="1">
                    <mxGeometry x="42.6" y="826" width="200" height="60" as="geometry"/>
                </mxCell>
                <mxCell id="108" value="第5層&lt;br&gt;セッション層" style="rounded=0;whiteSpace=wrap;html=1;fontSize=20;labelBackgroundColor=none;fillColor=#D4E1F5;" vertex="1" parent="1">
                    <mxGeometry x="42.6" y="886" width="200" height="60" as="geometry"/>
                </mxCell>
                <mxCell id="109" value="第4層&lt;br&gt;トランスポート層" style="rounded=0;whiteSpace=wrap;html=1;fontSize=20;labelBackgroundColor=none;fillColor=#D4E1F5;" vertex="1" parent="1">
                    <mxGeometry x="42.6" y="946" width="200" height="60" as="geometry"/>
                </mxCell>
                <mxCell id="110" value="第3層&lt;br&gt;ネットワーク層" style="rounded=0;whiteSpace=wrap;html=1;fontSize=20;fillColor=#A9C4EB;" vertex="1" parent="1">
                    <mxGeometry x="42.6" y="1006" width="200" height="60" as="geometry"/>
                </mxCell>
                <mxCell id="111" value="第2層&lt;br&gt;データリンク層" style="rounded=0;whiteSpace=wrap;html=1;fontSize=20;fillColor=#9AC7BF;" vertex="1" parent="1">
                    <mxGeometry x="42.6" y="1066" width="200" height="60" as="geometry"/>
                </mxCell>
                <mxCell id="112" value="第1層&lt;br&gt;物理層" style="rounded=0;whiteSpace=wrap;html=1;fontSize=20;fillColor=#67AB9F;" vertex="1" parent="1">
                    <mxGeometry x="42.6" y="1126" width="200" height="60" as="geometry"/>
                </mxCell>
                <mxCell id="113" value="ゲートウェイ" style="rounded=0;whiteSpace=wrap;html=1;fontSize=20;fillColor=#D4E1F5;" vertex="1" parent="1">
                    <mxGeometry x="262.6" y="766" width="200" height="240" as="geometry"/>
                </mxCell>
                <mxCell id="114" value="LAN間接続装置" style="text;html=1;resizable=0;points=[];autosize=1;align=center;verticalAlign=top;spacingTop=-4;fontSize=20;" vertex="1" parent="1">
                    <mxGeometry x="287.6" y="730" width="150" height="30" as="geometry"/>
                </mxCell>
                <mxCell id="115" value="ルータ" style="rounded=0;whiteSpace=wrap;html=1;fontSize=20;fillColor=#A9C4EB;" vertex="1" parent="1">
                    <mxGeometry x="262.6" y="1006" width="200" height="60" as="geometry"/>
                </mxCell>
                <mxCell id="116" value="ブリッジ,&lt;br&gt;スイッチングハブ" style="rounded=0;whiteSpace=wrap;html=1;fontSize=20;fillColor=#9AC7BF;" vertex="1" parent="1">
                    <mxGeometry x="262.6" y="1066" width="200" height="60" as="geometry"/>
                </mxCell>
                <mxCell id="117" value="リピータ" style="rounded=0;whiteSpace=wrap;html=1;fontSize=20;fillColor=#67AB9F;" vertex="1" parent="1">
                    <mxGeometry x="262.6" y="1126" width="200" height="60" as="geometry"/>
                </mxCell>
                <mxCell id="118" value="" style="endArrow=classic;startArrow=classic;html=1;fontSize=20;exitX=0.5;exitY=0;exitDx=0;exitDy=0;entryX=0.5;entryY=1;entryDx=0;entryDy=0;" edge="1" parent="1" source="120" target="119">
                    <mxGeometry width="50" height="50" relative="1" as="geometry">
                        <mxPoint x="497.1" y="1170" as="sourcePoint"/>
                        <mxPoint x="497.1" y="810" as="targetPoint"/>
                    </mxGeometry>
                </mxCell>
                <mxCell id="119" value="抽象的&lt;br style=&quot;font-size: 16px;&quot;&gt;高度" style="text;html=1;strokeColor=none;fillColor=none;align=center;verticalAlign=middle;whiteSpace=wrap;rounded=0;labelBackgroundColor=none;fontSize=16;" vertex="1" parent="1">
                    <mxGeometry x="462.6" y="766" width="70" height="50" as="geometry"/>
                </mxCell>
                <mxCell id="120" value="物理的&lt;br&gt;低度" style="text;html=1;strokeColor=none;fillColor=none;align=center;verticalAlign=middle;whiteSpace=wrap;rounded=0;labelBackgroundColor=none;fontSize=16;" vertex="1" parent="1">
                    <mxGeometry x="462.6" y="1136" width="70" height="50" as="geometry"/>
                </mxCell>
                <mxCell id="121" value="&lt;font style=&quot;font-size: 20px&quot; face=&quot;Tahoma&quot;&gt;(1)&lt;br&gt;ネットワークアドレスは、IPアドレスとサブネットマスクの論理積から求められる&lt;/font&gt;" style="text;html=1;resizable=0;points=[];autosize=1;align=left;verticalAlign=top;spacingTop=-4;" vertex="1" parent="1">
                    <mxGeometry x="600" y="720" width="750" height="40" as="geometry"/>
                </mxCell>
                <mxCell id="122" value="&lt;table border=&quot;1&quot; width=&quot;100%&quot; style=&quot;width: 100% ; height: 100% ; border-collapse: collapse ; font-size: 18px&quot;&gt;&lt;tbody&gt;&lt;tr&gt;&lt;td&gt;&lt;font style=&quot;font-size: 18px&quot; face=&quot;Tahoma&quot;&gt;IPアドレス&lt;/font&gt;&lt;/td&gt;&lt;td&gt;&lt;font style=&quot;font-size: 18px&quot; face=&quot;Tahoma&quot;&gt;10&lt;/font&gt;&lt;/td&gt;&lt;td&gt;&lt;font style=&quot;font-size: 18px&quot; face=&quot;Tahoma&quot;&gt;170&lt;/font&gt;&lt;/td&gt;&lt;td&gt;&lt;font face=&quot;Tahoma&quot;&gt;70&lt;/font&gt;&lt;/td&gt;&lt;td&gt;&lt;font face=&quot;Tahoma&quot;&gt;19&lt;/font&gt;&lt;/td&gt;&lt;/tr&gt;&lt;tr&gt;&lt;td&gt;&lt;font face=&quot;Tahoma&quot;&gt;IPアドレス&lt;br&gt;(2進数)&lt;/font&gt;&lt;/td&gt;&lt;td&gt;&lt;font style=&quot;font-size: 18px&quot; face=&quot;Tahoma&quot;&gt;00001010&lt;/font&gt;&lt;/td&gt;&lt;td&gt;&lt;font style=&quot;font-size: 18px&quot; face=&quot;Tahoma&quot;&gt;10101010&lt;/font&gt;&lt;/td&gt;&lt;td&gt;&lt;font face=&quot;Tahoma&quot;&gt;01000110&lt;/font&gt;&lt;/td&gt;&lt;td&gt;&lt;font face=&quot;Tahoma&quot;&gt;00010011&lt;/font&gt;&lt;/td&gt;&lt;/tr&gt;&lt;tr&gt;&lt;td&gt;&lt;font style=&quot;font-size: 18px&quot; face=&quot;Tahoma&quot;&gt;サブネットマスク&lt;/font&gt;&lt;/td&gt;&lt;td&gt;&lt;font style=&quot;font-size: 18px&quot; face=&quot;Tahoma&quot;&gt;255&lt;/font&gt;&lt;/td&gt;&lt;td&gt;&lt;font style=&quot;font-size: 18px&quot; face=&quot;Tahoma&quot;&gt;255&lt;/font&gt;&lt;/td&gt;&lt;td&gt;&lt;font face=&quot;Tahoma&quot;&gt;255&lt;/font&gt;&lt;/td&gt;&lt;td&gt;&lt;font face=&quot;Tahoma&quot;&gt;240&lt;/font&gt;&lt;/td&gt;&lt;/tr&gt;&lt;tr&gt;&lt;td&gt;&lt;font face=&quot;Tahoma&quot;&gt;サブネットマスク&lt;br&gt;(2進数)&lt;/font&gt;&lt;/td&gt;&lt;td&gt;&lt;font face=&quot;Tahoma&quot;&gt;11111111&lt;/font&gt;&lt;/td&gt;&lt;td&gt;&lt;font face=&quot;Tahoma&quot;&gt;11111111&lt;/font&gt;&lt;/td&gt;&lt;td&gt;&lt;font face=&quot;Tahoma&quot;&gt;11111111&lt;/font&gt;&lt;/td&gt;&lt;td&gt;&lt;font face=&quot;Tahoma&quot;&gt;11110000&lt;/font&gt;&lt;/td&gt;&lt;/tr&gt;&lt;tr&gt;&lt;td&gt;&lt;font face=&quot;Tahoma&quot;&gt;IPアドレスと&lt;br&gt;サブネットマスク&lt;br&gt;の論理積（2進数）&lt;/font&gt;&lt;/td&gt;&lt;td&gt;&lt;font face=&quot;Tahoma&quot;&gt;00001010&lt;/font&gt;&lt;/td&gt;&lt;td&gt;&lt;font face=&quot;Tahoma&quot;&gt;10101010&lt;/font&gt;&lt;/td&gt;&lt;td&gt;&lt;font face=&quot;Tahoma&quot;&gt;01000110&lt;/font&gt;&lt;/td&gt;&lt;td&gt;&lt;font face=&quot;Tahoma&quot;&gt;00010000&lt;/font&gt;&lt;/td&gt;&lt;/tr&gt;&lt;/tbody&gt;&lt;/table&gt;" style="text;html=1;strokeColor=none;fillColor=none;overflow=fill;align=center;" vertex="1" parent="1">
                    <mxGeometry x="640" y="780" width="560" height="240" as="geometry"/>
                </mxCell>
                <mxCell id="123" value="" style="endArrow=none;html=1;endFill=0;fillColor=#f8cecc;strokeColor=#b85450;" edge="1" parent="1">
                    <mxGeometry width="50" height="50" relative="1" as="geometry">
                        <mxPoint x="1230" y="880" as="sourcePoint"/>
                        <mxPoint x="1260" y="880" as="targetPoint"/>
                    </mxGeometry>
                </mxCell>
                <mxCell id="124" value="" style="endArrow=none;html=1;endFill=0;fillColor=#f8cecc;strokeColor=#b85450;" edge="1" parent="1">
                    <mxGeometry width="50" height="50" relative="1" as="geometry">
                        <mxPoint x="1260" y="980" as="sourcePoint"/>
                        <mxPoint x="1260" y="880" as="targetPoint"/>
                    </mxGeometry>
                </mxCell>
                <mxCell id="125" style="edgeStyle=orthogonalEdgeStyle;rounded=0;orthogonalLoop=1;jettySize=auto;html=1;exitX=1;exitY=0.25;exitDx=0;exitDy=0;entryX=1.002;entryY=0.563;entryDx=0;entryDy=0;entryPerimeter=0;endArrow=none;endFill=0;fillColor=#f8cecc;strokeColor=#b85450;" edge="1" parent="1" source="122" target="122">
                    <mxGeometry relative="1" as="geometry">
                        <Array as="points">
                            <mxPoint x="1230" y="840"/>
                            <mxPoint x="1230" y="915"/>
                        </Array>
                    </mxGeometry>
                </mxCell>
                <mxCell id="126" value="" style="endArrow=classic;html=1;endFill=1;entryX=1.004;entryY=0.829;entryDx=0;entryDy=0;entryPerimeter=0;fillColor=#f8cecc;strokeColor=#b85450;" edge="1" parent="1" target="122">
                    <mxGeometry width="50" height="50" relative="1" as="geometry">
                        <mxPoint x="1260" y="980" as="sourcePoint"/>
                        <mxPoint x="1260" y="880" as="targetPoint"/>
                    </mxGeometry>
                </mxCell>
                <mxCell id="127" value="&lt;font style=&quot;font-size: 18px&quot; face=&quot;Tahoma&quot; color=&quot;#ff6666&quot;&gt;AND&lt;/font&gt;" style="text;html=1;resizable=0;points=[];autosize=1;align=center;verticalAlign=top;spacingTop=-4;" vertex="1" parent="1">
                    <mxGeometry x="1260" y="920" width="50" height="20" as="geometry"/>
                </mxCell>
                <mxCell id="128" value="&lt;font style=&quot;font-size: 18px;&quot;&gt;10&lt;/font&gt;" style="text;html=1;resizable=0;points=[];autosize=1;align=center;verticalAlign=top;spacingTop=-4;fontColor=#FF6666;fontSize=18;fontFamily=Tahoma;" vertex="1" parent="1">
                    <mxGeometry x="850" y="1020" width="40" height="20" as="geometry"/>
                </mxCell>
                <mxCell id="129" value="&lt;font style=&quot;font-size: 18px&quot;&gt;170&lt;/font&gt;" style="text;html=1;resizable=0;points=[];autosize=1;align=center;verticalAlign=top;spacingTop=-4;fontColor=#FF6666;fontSize=18;fontFamily=Tahoma;" vertex="1" parent="1">
                    <mxGeometry x="935" y="1020" width="50" height="20" as="geometry"/>
                </mxCell>
                <mxCell id="130" value="&lt;font style=&quot;font-size: 18px&quot;&gt;70&lt;/font&gt;" style="text;html=1;resizable=0;points=[];autosize=1;align=center;verticalAlign=top;spacingTop=-4;fontColor=#FF6666;fontSize=18;fontFamily=Tahoma;" vertex="1" parent="1">
                    <mxGeometry x="1040" y="1020" width="40" height="20" as="geometry"/>
                </mxCell>
                <mxCell id="131" value="&lt;font style=&quot;font-size: 18px&quot;&gt;16&lt;/font&gt;" style="text;html=1;resizable=0;points=[];autosize=1;align=center;verticalAlign=top;spacingTop=-4;fontColor=#FF6666;fontSize=18;fontFamily=Tahoma;" vertex="1" parent="1">
                    <mxGeometry x="1130" y="1020" width="40" height="20" as="geometry"/>
                </mxCell>
                <mxCell id="132" value="&lt;font color=&quot;#000000&quot;&gt;ネットワークアドレス: 10.170.70.16&lt;/font&gt;" style="text;html=1;resizable=0;points=[];autosize=1;align=center;verticalAlign=top;spacingTop=-4;fontSize=18;fontFamily=Tahoma;fontColor=#FF6666;" vertex="1" parent="1">
                    <mxGeometry x="975" y="1050" width="310" height="20" as="geometry"/>
                </mxCell>
                <mxCell id="133" value="" style="endArrow=none;html=1;fontFamily=Tahoma;fontSize=18;fontColor=#FF6666;entryX=0.987;entryY=1.25;entryDx=0;entryDy=0;entryPerimeter=0;" edge="1" parent="1" target="132">
                    <mxGeometry width="50" height="50" relative="1" as="geometry">
                        <mxPoint x="1170" y="1075" as="sourcePoint"/>
                        <mxPoint x="1310" y="1110" as="targetPoint"/>
                    </mxGeometry>
                </mxCell>
                <mxCell id="134" value="&lt;font face=&quot;Tahoma&quot;&gt;&lt;span style=&quot;font-size: 20px&quot;&gt;(2)&lt;br&gt;ネットワークアドレスとサブネットマスクを2進数表記にすると以下のようになる&lt;br&gt;&lt;/span&gt;&lt;/font&gt;" style="text;html=1;resizable=0;points=[];autosize=1;align=left;verticalAlign=top;spacingTop=-4;" vertex="1" parent="1">
                    <mxGeometry x="600" y="1090" width="750" height="40" as="geometry"/>
                </mxCell>
                <mxCell id="135" value="&lt;font color=&quot;#000000&quot;&gt;ネットワークアドレス：&lt;/font&gt;" style="text;html=1;resizable=0;points=[];autosize=1;align=right;verticalAlign=top;spacingTop=-4;fontSize=18;fontFamily=Tahoma;fontColor=#FF6666;" vertex="1" parent="1">
                    <mxGeometry x="610" y="1180" width="210" height="20" as="geometry"/>
                </mxCell>
                <mxCell id="136" value="&lt;font color=&quot;#000000&quot;&gt;11001000&lt;/font&gt;" style="rounded=0;whiteSpace=wrap;html=1;fontFamily=Tahoma;fontSize=18;fontColor=#FF6666;align=center;" vertex="1" parent="1">
                    <mxGeometry x="830" y="1180" width="100" height="30" as="geometry"/>
                </mxCell>
                <mxCell id="137" value="200" style="text;html=1;resizable=0;points=[];autosize=1;align=center;verticalAlign=top;spacingTop=-4;fontSize=18;fontFamily=Tahoma;fontColor=#000000;" vertex="1" parent="1">
                    <mxGeometry x="855" y="1150" width="50" height="20" as="geometry"/>
                </mxCell>
                <mxCell id="138" value="&lt;font color=&quot;#000000&quot;&gt;10101010&lt;/font&gt;" style="rounded=0;whiteSpace=wrap;html=1;fontFamily=Tahoma;fontSize=18;fontColor=#FF6666;align=center;" vertex="1" parent="1">
                    <mxGeometry x="940" y="1180" width="100" height="30" as="geometry"/>
                </mxCell>
                <mxCell id="139" value="170" style="text;html=1;resizable=0;points=[];autosize=1;align=center;verticalAlign=top;spacingTop=-4;fontSize=18;fontFamily=Tahoma;fontColor=#000000;" vertex="1" parent="1">
                    <mxGeometry x="965" y="1150" width="50" height="20" as="geometry"/>
                </mxCell>
                <mxCell id="140" value="&lt;font color=&quot;#000000&quot;&gt;01000110&lt;/font&gt;" style="rounded=0;whiteSpace=wrap;html=1;fontFamily=Tahoma;fontSize=18;fontColor=#FF6666;align=center;" vertex="1" parent="1">
                    <mxGeometry x="1050" y="1180" width="100" height="30" as="geometry"/>
                </mxCell>
                <mxCell id="141" value="70" style="text;html=1;resizable=0;points=[];autosize=1;align=center;verticalAlign=top;spacingTop=-4;fontSize=18;fontFamily=Tahoma;fontColor=#000000;" vertex="1" parent="1">
                    <mxGeometry x="1080" y="1150" width="40" height="20" as="geometry"/>
                </mxCell>
                <mxCell id="142" style="edgeStyle=orthogonalEdgeStyle;rounded=0;orthogonalLoop=1;jettySize=auto;html=1;startArrow=classic;startFill=1;endArrow=none;endFill=0;fontFamily=Tahoma;fontSize=18;fontColor=#FF6666;fillColor=#f8cecc;strokeColor=#b85450;" edge="1" parent="1" source="143">
                    <mxGeometry relative="1" as="geometry">
                        <mxPoint x="1300.0000000000002" y="1195" as="targetPoint"/>
                    </mxGeometry>
                </mxCell>
                <mxCell id="143" value="&lt;font color=&quot;#000000&quot;&gt;00010000&lt;/font&gt;" style="rounded=0;whiteSpace=wrap;html=1;fontFamily=Tahoma;fontSize=18;fontColor=#FF6666;align=center;" vertex="1" parent="1">
                    <mxGeometry x="1160" y="1180" width="100" height="30" as="geometry"/>
                </mxCell>
                <mxCell id="144" value="16" style="text;html=1;resizable=0;points=[];autosize=1;align=center;verticalAlign=top;spacingTop=-4;fontSize=18;fontFamily=Tahoma;fontColor=#000000;" vertex="1" parent="1">
                    <mxGeometry x="1190" y="1150" width="40" height="20" as="geometry"/>
                </mxCell>
                <mxCell id="145" value="&lt;font color=&quot;#000000&quot;&gt;サブネットマスク：&lt;/font&gt;" style="text;html=1;resizable=0;points=[];autosize=1;align=right;verticalAlign=top;spacingTop=-4;fontSize=18;fontFamily=Tahoma;fontColor=#FF6666;" vertex="1" parent="1">
                    <mxGeometry x="640" y="1269" width="180" height="20" as="geometry"/>
                </mxCell>
                <mxCell id="146" value="&lt;font color=&quot;#000000&quot;&gt;11111111&lt;/font&gt;" style="rounded=0;whiteSpace=wrap;html=1;fontFamily=Tahoma;fontSize=18;fontColor=#FF6666;align=center;" vertex="1" parent="1">
                    <mxGeometry x="830" y="1264" width="100" height="30" as="geometry"/>
                </mxCell>
                <mxCell id="147" value="255" style="text;html=1;resizable=0;points=[];autosize=1;align=center;verticalAlign=top;spacingTop=-4;fontSize=18;fontFamily=Tahoma;fontColor=#000000;" vertex="1" parent="1">
                    <mxGeometry x="855" y="1234" width="50" height="20" as="geometry"/>
                </mxCell>
                <mxCell id="148" value="&lt;font color=&quot;#000000&quot;&gt;11111111&lt;/font&gt;" style="rounded=0;whiteSpace=wrap;html=1;fontFamily=Tahoma;fontSize=18;fontColor=#FF6666;align=center;" vertex="1" parent="1">
                    <mxGeometry x="940" y="1264" width="100" height="30" as="geometry"/>
                </mxCell>
                <mxCell id="149" value="255" style="text;html=1;resizable=0;points=[];autosize=1;align=center;verticalAlign=top;spacingTop=-4;fontSize=18;fontFamily=Tahoma;fontColor=#000000;" vertex="1" parent="1">
                    <mxGeometry x="965" y="1234" width="50" height="20" as="geometry"/>
                </mxCell>
                <mxCell id="150" value="&lt;font color=&quot;#000000&quot;&gt;11111111&lt;/font&gt;" style="rounded=0;whiteSpace=wrap;html=1;fontFamily=Tahoma;fontSize=18;fontColor=#FF6666;align=center;" vertex="1" parent="1">
                    <mxGeometry x="1050" y="1264" width="100" height="30" as="geometry"/>
                </mxCell>
                <mxCell id="151" value="255" style="text;html=1;resizable=0;points=[];autosize=1;align=center;verticalAlign=top;spacingTop=-4;fontSize=18;fontFamily=Tahoma;fontColor=#000000;" vertex="1" parent="1">
                    <mxGeometry x="1075" y="1234" width="50" height="20" as="geometry"/>
                </mxCell>
                <mxCell id="152" value="&lt;font color=&quot;#000000&quot;&gt;11110000&lt;/font&gt;" style="rounded=0;whiteSpace=wrap;html=1;fontFamily=Tahoma;fontSize=18;fontColor=#FF6666;align=center;" vertex="1" parent="1">
                    <mxGeometry x="1160" y="1264" width="100" height="30" as="geometry"/>
                </mxCell>
                <mxCell id="153" value="240" style="text;html=1;resizable=0;points=[];autosize=1;align=center;verticalAlign=top;spacingTop=-4;fontSize=18;fontFamily=Tahoma;fontColor=#000000;" vertex="1" parent="1">
                    <mxGeometry x="1185" y="1234" width="50" height="20" as="geometry"/>
                </mxCell>
                <mxCell id="154" value="&lt;font color=&quot;#000000&quot;&gt;IPアドレス：&lt;/font&gt;" style="text;html=1;resizable=0;points=[];autosize=1;align=right;verticalAlign=top;spacingTop=-4;fontSize=18;fontFamily=Tahoma;fontColor=#FF6666;" vertex="1" parent="1">
                    <mxGeometry x="700" y="1335" width="120" height="20" as="geometry"/>
                </mxCell>
                <mxCell id="155" value="&lt;font color=&quot;#000000&quot;&gt;11001000&lt;/font&gt;" style="rounded=0;whiteSpace=wrap;html=1;fontFamily=Tahoma;fontSize=18;fontColor=#FF6666;align=center;" vertex="1" parent="1">
                    <mxGeometry x="830" y="1330" width="100" height="30" as="geometry"/>
                </mxCell>
                <mxCell id="156" value="&lt;font color=&quot;#000000&quot;&gt;10101010&lt;/font&gt;" style="rounded=0;whiteSpace=wrap;html=1;fontFamily=Tahoma;fontSize=18;fontColor=#FF6666;align=center;" vertex="1" parent="1">
                    <mxGeometry x="940" y="1330" width="100" height="30" as="geometry"/>
                </mxCell>
                <mxCell id="157" value="&lt;font color=&quot;#000000&quot;&gt;01000110&lt;/font&gt;" style="rounded=0;whiteSpace=wrap;html=1;fontFamily=Tahoma;fontSize=18;fontColor=#FF6666;align=center;" vertex="1" parent="1">
                    <mxGeometry x="1050" y="1330" width="100" height="30" as="geometry"/>
                </mxCell>
                <mxCell id="158" style="edgeStyle=orthogonalEdgeStyle;rounded=0;orthogonalLoop=1;jettySize=auto;html=1;entryX=1;entryY=0.5;entryDx=0;entryDy=0;startArrow=none;startFill=0;endArrow=none;endFill=0;fontFamily=Tahoma;fontSize=18;fontColor=#FF6666;fillColor=#f8cecc;strokeColor=#b85450;" edge="1" parent="1" source="159" target="152">
                    <mxGeometry relative="1" as="geometry">
                        <Array as="points">
                            <mxPoint x="1280" y="1344"/>
                            <mxPoint x="1280" y="1279"/>
                        </Array>
                    </mxGeometry>
                </mxCell>
                <mxCell id="159" value="&lt;font color=&quot;#000000&quot;&gt;0001XXXX&lt;/font&gt;" style="rounded=0;whiteSpace=wrap;html=1;fontFamily=Tahoma;fontSize=18;fontColor=#FF6666;align=center;" vertex="1" parent="1">
                    <mxGeometry x="1160" y="1330" width="100" height="30" as="geometry"/>
                </mxCell>
                <mxCell id="160" value="" style="shape=partialRectangle;whiteSpace=wrap;html=1;bottom=1;right=1;left=1;top=0;fillColor=none;routingCenterX=-0.5;fontFamily=Tahoma;fontSize=18;align=right;strokeColor=#6c8ebf;" vertex="1" parent="1">
                    <mxGeometry x="840" y="1355" width="370" height="20" as="geometry"/>
                </mxCell>
                <mxCell id="161" style="edgeStyle=orthogonalEdgeStyle;rounded=0;orthogonalLoop=1;jettySize=auto;html=1;endArrow=none;endFill=0;fontFamily=Tahoma;fontSize=18;fontColor=#FF6666;fillColor=#dae8fc;strokeColor=#6c8ebf;startArrow=classic;startFill=1;exitX=0.5;exitY=1;exitDx=0;exitDy=0;" edge="1" parent="1" source="160" target="162">
                    <mxGeometry relative="1" as="geometry"/>
                </mxCell>
                <mxCell id="162" value="サブネットマスクが1である部分＝ネットワーク部&lt;br&gt;よって、上位28ビットがネットワーク部となる" style="text;html=1;resizable=0;points=[];autosize=1;align=center;verticalAlign=top;spacingTop=-4;fontSize=18;fontFamily=Tahoma;fontColor=#6666FF;" vertex="1" parent="1">
                    <mxGeometry x="763" y="1410" width="420" height="50" as="geometry"/>
                </mxCell>
                <mxCell id="163" style="edgeStyle=orthogonalEdgeStyle;rounded=0;orthogonalLoop=1;jettySize=auto;html=1;entryX=0.478;entryY=-0.15;entryDx=0;entryDy=0;entryPerimeter=0;startArrow=classic;startFill=1;endArrow=none;endFill=0;fontFamily=Tahoma;fontSize=18;fontColor=#FF6666;fillColor=#f8cecc;strokeColor=#b85450;" edge="1" parent="1" source="164" target="166">
                    <mxGeometry relative="1" as="geometry"/>
                </mxCell>
                <mxCell id="164" value="" style="shape=partialRectangle;whiteSpace=wrap;html=1;bottom=1;right=1;left=1;top=0;fillColor=none;routingCenterX=-0.5;fontFamily=Tahoma;fontSize=18;align=center;strokeColor=#b85450;" vertex="1" parent="1">
                    <mxGeometry x="1213" y="1355" width="37" height="20" as="geometry"/>
                </mxCell>
                <mxCell id="165" value="" style="shape=partialRectangle;whiteSpace=wrap;html=1;bottom=1;right=1;left=1;top=0;fillColor=none;routingCenterX=-0.5;fontFamily=Tahoma;fontSize=18;align=right;strokeColor=#6c8ebf;" vertex="1" parent="1">
                    <mxGeometry x="840" y="1289" width="370" height="20" as="geometry"/>
                </mxCell>
                <mxCell id="166" value="&lt;font color=&quot;#ff6666&quot;&gt;ホスト部&lt;br&gt;&lt;/font&gt;" style="text;html=1;resizable=0;points=[];autosize=1;align=center;verticalAlign=top;spacingTop=-4;fontSize=18;fontFamily=Tahoma;fontColor=#6666FF;" vertex="1" parent="1">
                    <mxGeometry x="1210" y="1410" width="90" height="20" as="geometry"/>
                </mxCell>
                <mxCell id="167" value="" style="endArrow=none;html=1;fontFamily=Tahoma;fontSize=18;fontColor=#FF6666;fillColor=#f8cecc;strokeColor=#b85450;" edge="1" parent="1">
                    <mxGeometry width="50" height="50" relative="1" as="geometry">
                        <mxPoint x="1300" y="1310" as="sourcePoint"/>
                        <mxPoint x="1299.5" y="1195" as="targetPoint"/>
                    </mxGeometry>
                </mxCell>
                <mxCell id="168" value="" style="endArrow=none;html=1;fontFamily=Tahoma;fontSize=18;fontColor=#FF6666;fillColor=#f8cecc;strokeColor=#b85450;" edge="1" parent="1">
                    <mxGeometry width="50" height="50" relative="1" as="geometry">
                        <mxPoint x="1280" y="1310" as="sourcePoint"/>
                        <mxPoint x="1300" y="1310" as="targetPoint"/>
                    </mxGeometry>
                </mxCell>
                <mxCell id="169" value="AND" style="text;html=1;resizable=0;points=[];autosize=1;align=center;verticalAlign=top;spacingTop=-4;fontSize=18;fontFamily=Tahoma;fontColor=#FF6666;" vertex="1" parent="1">
                    <mxGeometry x="1300" y="1234" width="50" height="20" as="geometry"/>
                </mxCell>
                <mxCell id="170" value="" style="shape=flexArrow;endArrow=classic;html=1;fontFamily=Tahoma;fontSize=18;fontColor=#FF6666;fillColor=#ffe6cc;strokeColor=#d79b00;" edge="1" parent="1">
                    <mxGeometry width="50" height="50" relative="1" as="geometry">
                        <mxPoint x="760" y="1524.5" as="sourcePoint"/>
                        <mxPoint x="800" y="1524.5" as="targetPoint"/>
                    </mxGeometry>
                </mxCell>
                <mxCell id="171" value="&lt;font color=&quot;#000000&quot;&gt;IPアドレス AND サブネットマスク = ネットワークアドレス&lt;br&gt;を満たすホスト部を考えると 0000 〜 1111 となる&lt;br&gt;&lt;br&gt;&lt;b&gt;ホスト部のビットが全て0 または 全て1のアドレスは&lt;br&gt;使用できない&lt;/b&gt;ため、ホスト部は &lt;/font&gt;0001 〜 1110&lt;font color=&quot;#000000&quot;&gt; となる&lt;br&gt;&lt;/font&gt;" style="text;html=1;resizable=0;points=[];autosize=1;align=left;verticalAlign=top;spacingTop=-4;fontSize=18;fontFamily=Tahoma;fontColor=#FF6666;" vertex="1" parent="1">
                    <mxGeometry x="815" y="1470" width="490" height="110" as="geometry"/>
                </mxCell>
                <mxCell id="172" value="" style="shape=flexArrow;endArrow=classic;html=1;fontFamily=Tahoma;fontSize=18;fontColor=#FF6666;fillColor=#ffe6cc;strokeColor=#d79b00;" edge="1" parent="1">
                    <mxGeometry width="50" height="50" relative="1" as="geometry">
                        <mxPoint x="1015" y="1590" as="sourcePoint"/>
                        <mxPoint x="1015" y="1630" as="targetPoint"/>
                    </mxGeometry>
                </mxCell>
                <mxCell id="173" value="&lt;font color=&quot;#000000&quot;&gt;11001000.10101010.01000110.0001 &lt;/font&gt;0001 〜 1110&lt;br&gt;&lt;font color=&quot;#000000&quot;&gt;↓&lt;br&gt;200.170.70.17 〜 200.170.70.30&lt;/font&gt;" style="text;html=1;resizable=0;points=[];autosize=1;align=center;verticalAlign=top;spacingTop=-4;fontSize=18;fontFamily=Tahoma;fontColor=#FF6666;" vertex="1" parent="1">
                    <mxGeometry x="805" y="1640" width="420" height="70" as="geometry"/>
                </mxCell>
                <mxCell id="174" value="" style="endArrow=none;html=1;fontFamily=Tahoma;fontSize=18;fontColor=#FF6666;exitX=0.179;exitY=0.988;exitDx=0;exitDy=0;exitPerimeter=0;" edge="1" parent="1" source="173">
                    <mxGeometry width="50" height="50" relative="1" as="geometry">
                        <mxPoint x="1100" y="1760" as="sourcePoint"/>
                        <mxPoint x="1150" y="1710" as="targetPoint"/>
                    </mxGeometry>
                </mxCell>
                <mxCell id="175" value="" style="aspect=fixed;perimeter=ellipsePerimeter;html=1;align=center;shadow=0;dashed=0;spacingTop=3;image;image=img/lib/active_directory/database_server.svg;" vertex="1" parent="1">
                    <mxGeometry x="242.6" y="1244" width="41" height="50" as="geometry"/>
                </mxCell>
                <mxCell id="176" value="" style="aspect=fixed;perimeter=ellipsePerimeter;html=1;align=center;shadow=0;dashed=0;spacingTop=3;image;image=img/lib/active_directory/database_server.svg;" vertex="1" parent="1">
                    <mxGeometry x="202.6" y="1308" width="41" height="50" as="geometry"/>
                </mxCell>
                <mxCell id="177" value="" style="aspect=fixed;perimeter=ellipsePerimeter;html=1;align=center;shadow=0;dashed=0;spacingTop=3;image;image=img/lib/active_directory/database_server.svg;" vertex="1" parent="1">
                    <mxGeometry x="152" y="1388.75" width="41" height="50" as="geometry"/>
                </mxCell>
                <mxCell id="178" value="" style="aspect=fixed;perimeter=ellipsePerimeter;html=1;align=center;shadow=0;dashed=0;spacingTop=3;image;image=img/lib/active_directory/database_server.svg;" vertex="1" parent="1">
                    <mxGeometry x="151.92000000000002" y="1459.25" width="41" height="50" as="geometry"/>
                </mxCell>
                <mxCell id="180" value="ルート" style="rounded=0;whiteSpace=wrap;html=1;fontSize=13;" vertex="1" parent="1">
                    <mxGeometry x="303.6" y="1276.5" width="75.5" height="28.5" as="geometry"/>
                </mxCell>
                <mxCell id="181" value="&lt;b&gt;ルートネームサーバ&lt;/b&gt;" style="text;html=1;strokeColor=none;fillColor=none;align=center;verticalAlign=middle;whiteSpace=wrap;rounded=0;fontSize=13;" vertex="1" parent="1">
                    <mxGeometry x="272.85" y="1244" width="137" height="26" as="geometry"/>
                </mxCell>
                <mxCell id="182" value="jp" style="rounded=0;whiteSpace=wrap;html=1;fontSize=13;" vertex="1" parent="1">
                    <mxGeometry x="260.5" y="1330.75" width="40" height="28.5" as="geometry"/>
                </mxCell>
                <mxCell id="186" style="edgeStyle=orthogonalEdgeStyle;rounded=0;orthogonalLoop=1;jettySize=auto;html=1;entryX=0.5;entryY=1;entryDx=0;entryDy=0;fontSize=13;endArrow=none;endFill=0;strokeColor=#3333FF;" edge="1" parent="1" source="183" target="180">
                    <mxGeometry relative="1" as="geometry"/>
                </mxCell>
                <mxCell id="202" style="edgeStyle=orthogonalEdgeStyle;rounded=0;orthogonalLoop=1;jettySize=auto;html=1;endArrow=none;endFill=0;strokeColor=#3333FF;fontSize=13;" edge="1" parent="1" source="183">
                    <mxGeometry relative="1" as="geometry">
                        <mxPoint x="341.35000000000014" y="1380" as="targetPoint"/>
                    </mxGeometry>
                </mxCell>
                <mxCell id="183" value="com" style="rounded=0;whiteSpace=wrap;html=1;fontSize=13;" vertex="1" parent="1">
                    <mxGeometry x="321.35" y="1330.75" width="40" height="28.5" as="geometry"/>
                </mxCell>
                <mxCell id="184" value="net" style="rounded=0;whiteSpace=wrap;html=1;fontSize=13;" vertex="1" parent="1">
                    <mxGeometry x="383" y="1330.75" width="40" height="28.5" as="geometry"/>
                </mxCell>
                <mxCell id="185" value="&lt;b&gt;トップレベルドメイン&lt;/b&gt;" style="text;html=1;strokeColor=none;fillColor=none;align=center;verticalAlign=middle;whiteSpace=wrap;rounded=0;fontSize=13;" vertex="1" parent="1">
                    <mxGeometry x="423.6" y="1332" width="150" height="26" as="geometry"/>
                </mxCell>
                <mxCell id="187" style="edgeStyle=orthogonalEdgeStyle;rounded=0;orthogonalLoop=1;jettySize=auto;html=1;entryX=0.5;entryY=1;entryDx=0;entryDy=0;fontSize=13;endArrow=none;endFill=0;exitX=0.5;exitY=0;exitDx=0;exitDy=0;strokeColor=#3333FF;" edge="1" parent="1" source="182" target="180">
                    <mxGeometry relative="1" as="geometry">
                        <Array as="points">
                            <mxPoint x="290" y="1320"/>
                            <mxPoint x="341" y="1320"/>
                        </Array>
                    </mxGeometry>
                </mxCell>
                <mxCell id="188" style="edgeStyle=orthogonalEdgeStyle;rounded=0;orthogonalLoop=1;jettySize=auto;html=1;entryX=0.5;entryY=1;entryDx=0;entryDy=0;fontSize=13;endArrow=none;endFill=0;exitX=0.565;exitY=-0.032;exitDx=0;exitDy=0;exitPerimeter=0;strokeColor=#3333FF;" edge="1" parent="1" source="184" target="180">
                    <mxGeometry relative="1" as="geometry">
                        <Array as="points">
                            <mxPoint x="403" y="1320"/>
                            <mxPoint x="341" y="1320"/>
                        </Array>
                    </mxGeometry>
                </mxCell>
                <mxCell id="189" value="jp ドメイン管理" style="shape=callout;whiteSpace=wrap;html=1;perimeter=calloutPerimeter;fontSize=13;size=10;position=0.56;position2=0.89;" vertex="1" parent="1">
                    <mxGeometry x="100.5" y="1263" width="110" height="40" as="geometry"/>
                </mxCell>
                <mxCell id="212" style="edgeStyle=orthogonalEdgeStyle;rounded=0;orthogonalLoop=1;jettySize=auto;html=1;entryX=0.5;entryY=0;entryDx=0;entryDy=0;endArrow=none;endFill=0;strokeColor=#3333FF;fontSize=13;" edge="1" parent="1" source="190" target="211">
                    <mxGeometry relative="1" as="geometry"/>
                </mxCell>
                <mxCell id="190" value="co" style="rounded=0;whiteSpace=wrap;html=1;fontSize=13;" vertex="1" parent="1">
                    <mxGeometry x="203.25" y="1411.5" width="40.35" height="28.5" as="geometry"/>
                </mxCell>
                <mxCell id="193" style="edgeStyle=orthogonalEdgeStyle;rounded=0;orthogonalLoop=1;jettySize=auto;html=1;entryX=0.5;entryY=1;entryDx=0;entryDy=0;endArrow=none;endFill=0;strokeColor=#3333FF;fontSize=13;" edge="1" parent="1" source="191">
                    <mxGeometry relative="1" as="geometry">
                        <mxPoint x="280.85" y="1385.3699999999997" as="targetPoint"/>
                    </mxGeometry>
                </mxCell>
                <mxCell id="191" value="go" style="rounded=0;whiteSpace=wrap;html=1;fontSize=13;" vertex="1" parent="1">
                    <mxGeometry x="260.85" y="1411.5" width="40" height="28.5" as="geometry"/>
                </mxCell>
                <mxCell id="192" value="ac" style="rounded=0;whiteSpace=wrap;html=1;fontSize=13;" vertex="1" parent="1">
                    <mxGeometry x="321.35" y="1411.5" width="40" height="28.5" as="geometry"/>
                </mxCell>
                <mxCell id="194" style="edgeStyle=orthogonalEdgeStyle;rounded=0;orthogonalLoop=1;jettySize=auto;html=1;entryX=0.5;entryY=1;entryDx=0;entryDy=0;endArrow=none;endFill=0;strokeColor=#3333FF;fontSize=13;exitX=0.5;exitY=0;exitDx=0;exitDy=0;" edge="1" parent="1" source="190">
                    <mxGeometry relative="1" as="geometry">
                        <mxPoint x="280.85" y="1385.3699999999997" as="targetPoint"/>
                        <Array as="points">
                            <mxPoint x="223" y="1396"/>
                            <mxPoint x="281" y="1396"/>
                        </Array>
                    </mxGeometry>
                </mxCell>
                <mxCell id="196" style="edgeStyle=orthogonalEdgeStyle;rounded=0;orthogonalLoop=1;jettySize=auto;html=1;entryX=0.5;entryY=1;entryDx=0;entryDy=0;fontSize=13;endArrow=none;endFill=0;strokeColor=#3333FF;" edge="1" parent="1" target="180">
                    <mxGeometry relative="1" as="geometry">
                        <mxPoint x="441" y="1320" as="sourcePoint"/>
                        <mxPoint x="341.35" y="1305" as="targetPoint"/>
                        <Array as="points">
                            <mxPoint x="441" y="1320"/>
                            <mxPoint x="341" y="1320"/>
                        </Array>
                    </mxGeometry>
                </mxCell>
                <mxCell id="198" style="edgeStyle=orthogonalEdgeStyle;rounded=0;orthogonalLoop=1;jettySize=auto;html=1;entryX=0.5;entryY=1;entryDx=0;entryDy=0;endArrow=none;endFill=0;strokeColor=#3333FF;fontSize=13;" edge="1" parent="1" target="182">
                    <mxGeometry relative="1" as="geometry">
                        <mxPoint x="391.35" y="1396.12" as="sourcePoint"/>
                        <mxPoint x="280.85" y="1385.3699999999997" as="targetPoint"/>
                        <Array as="points">
                            <mxPoint x="280" y="1396"/>
                        </Array>
                    </mxGeometry>
                </mxCell>
                <mxCell id="199" value="jp 以下で管理される" style="text;html=1;strokeColor=none;fillColor=none;align=center;verticalAlign=middle;whiteSpace=wrap;rounded=0;fontSize=13;" vertex="1" parent="1">
                    <mxGeometry x="371.15000000000003" y="1412.75" width="140.2" height="26" as="geometry"/>
                </mxCell>
                <mxCell id="201" style="edgeStyle=orthogonalEdgeStyle;rounded=0;orthogonalLoop=1;jettySize=auto;html=1;entryX=0.5;entryY=1;entryDx=0;entryDy=0;endArrow=none;endFill=0;strokeColor=#3333FF;fontSize=13;exitX=0.5;exitY=0;exitDx=0;exitDy=0;" edge="1" parent="1" source="192" target="182">
                    <mxGeometry relative="1" as="geometry">
                        <mxPoint x="391.35" y="1396.12" as="sourcePoint"/>
                        <mxPoint x="280.85" y="1385.3699999999997" as="targetPoint"/>
                        <Array as="points">
                            <mxPoint x="341" y="1396"/>
                            <mxPoint x="280" y="1396"/>
                        </Array>
                    </mxGeometry>
                </mxCell>
                <mxCell id="203" style="edgeStyle=orthogonalEdgeStyle;rounded=0;orthogonalLoop=1;jettySize=auto;html=1;endArrow=none;endFill=0;strokeColor=#3333FF;fontSize=13;" edge="1" parent="1" source="183">
                    <mxGeometry relative="1" as="geometry">
                        <mxPoint x="321" y="1380" as="targetPoint"/>
                        <mxPoint x="341.37931034482756" y="1359.2499999999998" as="sourcePoint"/>
                        <Array as="points">
                            <mxPoint x="341" y="1370"/>
                            <mxPoint x="321" y="1370"/>
                        </Array>
                    </mxGeometry>
                </mxCell>
                <mxCell id="204" style="edgeStyle=orthogonalEdgeStyle;rounded=0;orthogonalLoop=1;jettySize=auto;html=1;endArrow=none;endFill=0;strokeColor=#3333FF;fontSize=13;" edge="1" parent="1" source="183">
                    <mxGeometry relative="1" as="geometry">
                        <mxPoint x="361" y="1380" as="targetPoint"/>
                        <mxPoint x="341.37931034482756" y="1359.2499999999998" as="sourcePoint"/>
                        <Array as="points">
                            <mxPoint x="341" y="1370"/>
                            <mxPoint x="361" y="1370"/>
                        </Array>
                    </mxGeometry>
                </mxCell>
                <mxCell id="205" style="edgeStyle=orthogonalEdgeStyle;rounded=0;orthogonalLoop=1;jettySize=auto;html=1;endArrow=none;endFill=0;strokeColor=#3333FF;fontSize=13;" edge="1" parent="1">
                    <mxGeometry relative="1" as="geometry">
                        <mxPoint x="403.35000000000014" y="1380.75" as="targetPoint"/>
                        <mxPoint x="403.37931034482756" y="1359.9999999999998" as="sourcePoint"/>
                    </mxGeometry>
                </mxCell>
                <mxCell id="206" style="edgeStyle=orthogonalEdgeStyle;rounded=0;orthogonalLoop=1;jettySize=auto;html=1;endArrow=none;endFill=0;strokeColor=#3333FF;fontSize=13;" edge="1" parent="1">
                    <mxGeometry relative="1" as="geometry">
                        <mxPoint x="383" y="1380.75" as="targetPoint"/>
                        <mxPoint x="403.37931034482756" y="1359.9999999999998" as="sourcePoint"/>
                        <Array as="points">
                            <mxPoint x="403" y="1370.75"/>
                            <mxPoint x="383" y="1370.75"/>
                        </Array>
                    </mxGeometry>
                </mxCell>
                <mxCell id="207" style="edgeStyle=orthogonalEdgeStyle;rounded=0;orthogonalLoop=1;jettySize=auto;html=1;endArrow=none;endFill=0;strokeColor=#3333FF;fontSize=13;" edge="1" parent="1">
                    <mxGeometry relative="1" as="geometry">
                        <mxPoint x="423" y="1380.75" as="targetPoint"/>
                        <mxPoint x="403.37931034482756" y="1359.9999999999998" as="sourcePoint"/>
                        <Array as="points">
                            <mxPoint x="403" y="1370.75"/>
                            <mxPoint x="423" y="1370.75"/>
                        </Array>
                    </mxGeometry>
                </mxCell>
                <mxCell id="208" value="co.jp ドメイン管理" style="shape=callout;whiteSpace=wrap;html=1;perimeter=calloutPerimeter;fontSize=13;size=10;position=0.56;position2=0.82;base=18;" vertex="1" parent="1">
                    <mxGeometry x="51" y="1345" width="120" height="40" as="geometry"/>
                </mxCell>
                <mxCell id="209" value="" style="shape=flexArrow;endArrow=classic;html=1;strokeColor=#b85450;fontSize=13;fillColor=#f8cecc;endWidth=12.244897959183675;endSize=4.24;width=4.571428571428571;" edge="1" parent="1">
                    <mxGeometry width="50" height="50" relative="1" as="geometry">
                        <mxPoint x="251" y="1294" as="sourcePoint"/>
                        <mxPoint x="231" y="1314" as="targetPoint"/>
                    </mxGeometry>
                </mxCell>
                <mxCell id="210" value="" style="shape=flexArrow;endArrow=classic;html=1;strokeColor=#b85450;fontSize=13;fillColor=#f8cecc;endWidth=12.244897959183675;endSize=4.24;width=4.571428571428571;" edge="1" parent="1">
                    <mxGeometry width="50" height="50" relative="1" as="geometry">
                        <mxPoint x="203.25" y="1360" as="sourcePoint"/>
                        <mxPoint x="183" y="1390" as="targetPoint"/>
                    </mxGeometry>
                </mxCell>
                <mxCell id="211" value="company" style="rounded=0;whiteSpace=wrap;html=1;fontSize=13;" vertex="1" parent="1">
                    <mxGeometry x="193.42" y="1470" width="60" height="28.5" as="geometry"/>
                </mxCell>
                <mxCell id="213" style="edgeStyle=orthogonalEdgeStyle;rounded=0;orthogonalLoop=1;jettySize=auto;html=1;endArrow=none;endFill=0;strokeColor=#3333FF;fontSize=13;" edge="1" parent="1" source="190">
                    <mxGeometry relative="1" as="geometry">
                        <mxPoint x="223.51724137931035" y="1440" as="sourcePoint"/>
                        <mxPoint x="181" y="1460" as="targetPoint"/>
                        <Array as="points">
                            <mxPoint x="224" y="1450"/>
                            <mxPoint x="181" y="1450"/>
                        </Array>
                    </mxGeometry>
                </mxCell>
                <mxCell id="214" style="edgeStyle=orthogonalEdgeStyle;rounded=0;orthogonalLoop=1;jettySize=auto;html=1;endArrow=none;endFill=0;strokeColor=#3333FF;fontSize=13;" edge="1" parent="1" source="190">
                    <mxGeometry relative="1" as="geometry">
                        <mxPoint x="223.51724137931035" y="1440" as="sourcePoint"/>
                        <mxPoint x="261" y="1460" as="targetPoint"/>
                        <Array as="points">
                            <mxPoint x="224" y="1450"/>
                            <mxPoint x="261" y="1450"/>
                        </Array>
                    </mxGeometry>
                </mxCell>
                <mxCell id="215" value="" style="shape=flexArrow;endArrow=classic;html=1;strokeColor=#b85450;fontSize=13;fillColor=#f8cecc;endWidth=9.444444444444445;endSize=1.8933333333333333;width=5.666666666666667;entryX=0.217;entryY=-0.032;entryDx=0;entryDy=0;entryPerimeter=0;" edge="1" parent="1" target="178">
                    <mxGeometry width="50" height="50" relative="1" as="geometry">
                        <mxPoint x="161" y="1440" as="sourcePoint"/>
                        <mxPoint x="141" y="1460" as="targetPoint"/>
                    </mxGeometry>
                </mxCell>
                <mxCell id="216" value="company.co.jp&lt;br&gt;ドメイン管理" style="shape=callout;whiteSpace=wrap;html=1;perimeter=calloutPerimeter;fontSize=13;size=10;position=0.75;position2=1;base=18;" vertex="1" parent="1">
                    <mxGeometry x="41" y="1430" width="100" height="50" as="geometry"/>
                </mxCell>
                <mxCell id="217" style="edgeStyle=orthogonalEdgeStyle;rounded=0;orthogonalLoop=1;jettySize=auto;html=1;endArrow=none;endFill=0;strokeColor=#3333FF;fontSize=13;" edge="1" parent="1">
                    <mxGeometry relative="1" as="geometry">
                        <mxPoint x="223.01428571428573" y="1498.5" as="sourcePoint"/>
                        <mxPoint x="181" y="1530" as="targetPoint"/>
                        <Array as="points">
                            <mxPoint x="223" y="1518"/>
                            <mxPoint x="181" y="1518"/>
                        </Array>
                    </mxGeometry>
                </mxCell>
                <mxCell id="218" style="edgeStyle=orthogonalEdgeStyle;rounded=0;orthogonalLoop=1;jettySize=auto;html=1;endArrow=none;endFill=0;strokeColor=#3333FF;fontSize=13;" edge="1" parent="1">
                    <mxGeometry relative="1" as="geometry">
                        <mxPoint x="223.01428571428573" y="1498.5" as="sourcePoint"/>
                        <mxPoint x="261" y="1530" as="targetPoint"/>
                        <Array as="points">
                            <mxPoint x="223" y="1518"/>
                            <mxPoint x="261" y="1518"/>
                        </Array>
                    </mxGeometry>
                </mxCell>
                <mxCell id="219" style="edgeStyle=orthogonalEdgeStyle;rounded=0;orthogonalLoop=1;jettySize=auto;html=1;entryX=0.5;entryY=0;entryDx=0;entryDy=0;endArrow=none;endFill=0;strokeColor=#3333FF;fontSize=13;" edge="1" target="220" parent="1">
                    <mxGeometry relative="1" as="geometry">
                        <mxPoint x="223.01428571428573" y="1498.5" as="sourcePoint"/>
                    </mxGeometry>
                </mxCell>
                <mxCell id="220" value="www" style="rounded=0;whiteSpace=wrap;html=1;fontSize=13;" vertex="1" parent="1">
                    <mxGeometry x="192.92" y="1528.5" width="60" height="28.5" as="geometry"/>
                </mxCell>
                <mxCell id="221" value="&lt;b&gt;サブドメイン&lt;/b&gt;" style="text;html=1;strokeColor=none;fillColor=none;align=center;verticalAlign=middle;whiteSpace=wrap;rounded=0;fontSize=13;" vertex="1" parent="1">
                    <mxGeometry x="168.17000000000002" y="1570" width="109.5" height="26" as="geometry"/>
                </mxCell>
                <mxCell id="222" value="www.company.co.jp&lt;br&gt;&lt;font color=&quot;#ff3333&quot;&gt;123.45.6.78&lt;/font&gt;" style="shape=callout;whiteSpace=wrap;html=1;perimeter=calloutPerimeter;fontSize=13;direction=south;base=7;size=18;position=0.45;" vertex="1" parent="1">
                    <mxGeometry x="260.85" y="1516.75" width="180.15" height="52" as="geometry"/>
                </mxCell>
                <mxCell id="223" value="" style="rounded=0;whiteSpace=wrap;html=1;fontSize=13;strokeColor=#d79b00;fillColor=none;" vertex="1" parent="1">
                    <mxGeometry x="253" y="1310" width="327" height="70" as="geometry"/>
                </mxCell>
                <mxCell id="224" value="トップレベルドメインを管理している組織を&lt;b&gt;レジストリ&lt;/b&gt;と呼ぶ" style="rounded=0;whiteSpace=wrap;html=1;fillColor=#ffe6cc;fontSize=13;strokeColor=#d79b00;" vertex="1" parent="1">
                    <mxGeometry x="400" y="1447.5" width="227" height="51" as="geometry"/>
                </mxCell>
                <mxCell id="225" value="" style="endArrow=classic;html=1;strokeColor=#d79b00;fontSize=13;fillColor=#ffe6cc;entryX=0.814;entryY=0.987;entryDx=0;entryDy=0;entryPerimeter=0;" edge="1" parent="1" source="224" target="223">
                    <mxGeometry width="50" height="50" relative="1" as="geometry">
                        <mxPoint x="560" y="1640" as="sourcePoint"/>
                        <mxPoint x="610" y="1590" as="targetPoint"/>
                    </mxGeometry>
                </mxCell>
                <mxCell id="226" value="&lt;b&gt;ICANN&lt;/b&gt; という非営利法人が運用" style="rounded=0;whiteSpace=wrap;html=1;fillColor=#ffe6cc;fontSize=13;strokeColor=#d79b00;" vertex="1" parent="1">
                    <mxGeometry x="415.75" y="1256.5" width="210.15" height="46.5" as="geometry"/>
                </mxCell>
                <mxCell id="228" value="" style="endArrow=classic;html=1;strokeColor=#d79b00;fontSize=13;fillColor=#ffe6cc;exitX=0;exitY=0.5;exitDx=0;exitDy=0;entryX=1;entryY=0.5;entryDx=0;entryDy=0;" edge="1" parent="1" source="226" target="180">
                    <mxGeometry width="50" height="50" relative="1" as="geometry">
                        <mxPoint x="500" y="1640" as="sourcePoint"/>
                        <mxPoint x="550" y="1590" as="targetPoint"/>
                    </mxGeometry>
                </mxCell>
            </root>
        </mxGraphModel>
    </diagram>
</mxfile>